<svg xmlns="http://www.w3.org/2000/svg" viewBox="0 0 256 256" fill="hsl(var(--primary))">
  <path d="M213.6,82.3,144,46.33a15.89,15.89,0,0,0-16.1,0l-69.6,36A16,16,0,0,0,52,96.57V159.43a16,16,0,0,0,6.3,14.27l69.6,36a15.89,15.89,0,0,0,16.1,0l69.6-36a16,16,0,0,0,6.3-14.27V96.57A16,16,0,0,0,213.6,82.3Z" opacity="0.2"></path>
  <path d="M220,96.57a16,16,0,0,0-6.4-14.27l-69.6-36a15.89,15.89,0,0,0-16.1,0l-69.6,36A16,16,0,0,0,52,96.57v62.86a16,16,0,0,0,6.3,14.27l69.6,36a15.89,15.89,0,0,0,16.1,0l69.6-36A16,16,0,0,0,220,159.43ZM128,197.67,64,164.57v-63l64,33.1ZM136,124,66.4,88.4,136,52.83l69.6,35.57Z"></path>
</svg>
